<?xml version="1.0" encoding="utf-8"?>
<!-- Generator: Adobe Illustrator 28.3.0, SVG Export Plug-In . SVG Version: 6.00 Build 0)  -->
<svg version="1.0" id="KWES" xmlns="http://www.w3.org/2000/svg" xmlns:xlink="http://www.w3.org/1999/xlink" x="0px" y="0px"
	 viewBox="0 0 2101.27 708.65" style="enable-background:new 0 0 2101.27 708.65;" xml:space="preserve">
<style type="text/css">
	.st0{fill:#FFFFFF;}
	.st1{fill:none;stroke:#FFFFFF;stroke-width:41;stroke-miterlimit:10;}
	.st2{fill:#045EA8;}
	.st3{fill:#055FA9;stroke:#045EA8;stroke-width:41;stroke-miterlimit:10;}
</style>
<g>
	<g>
		<path class="st0" d="M1363.87,404.5h-66.26c-0.65,19.79-0.36,39.61-0.62,59.42c-0.02,3.85-0.36,7.59-2.23,11.03
			c-4.13,8.33-17.66,8.31-20.93-0.7c-1.45-3.35-1.9-6.84-1.9-10.45c0.02-11.17-0.01-22.34-0.02-33.51
			c0.05-15.14,0.11-30.28,0.17-45.42c29.46-0.76,58.99-0.04,88.47-0.3c1.18-0.01,2.44,0.34,3.86-0.54c0.01-21.49-0.11-43,0.03-64.49
			c0.09-13.91-2.45-27.32-7.33-40.27c-8.7-23.06-23.31-40.61-47.39-48.52c-32.57-10.76-73.91-3.13-92.62,27.81
			c-8.77,13.72-13.57,28.93-14.71,45.02c-1.79,25.43-0.54,50.92-0.64,76.39c-0.01,18.1-0.01,36.21-0.01,54.32
			c-1.68,37.64,13.07,81.63,52.4,93.67c14.49,4.71,29.37,5.24,44.39,3.21c39.46-4.12,65.33-38.02,65.75-76.36
			c0.64-15.73,0.12-31.51,0.1-47.27C1364.37,406.57,1364.67,405.53,1363.87,404.5z M1272.06,330.98c-0.02-12.6,0-25.21,0.02-37.81
			c-0.06-6.71,2.32-15.09,10.36-14.69c4.73-0.03,7.68,2.07,9.29,6.64c0.71,2,1.12,4.08,1.13,6.22c-0.2,14.99,0.46,30.06-0.19,44.99
			h-20.31C1271.74,334.5,1272.07,332.72,1272.06,330.98z"/>
		<path class="st0" d="M888.42,414.59c-1.32-14.04-5.46-26.94-16.25-36.73c-9.18-8.31-19.19-15.6-29.37-22.66
			c-9.49-7.44-19.6-13.99-29.42-20.96c-6.19-4.39-12.37-9.55-13.16-17.4c-0.97-9.73-0.49-19.64-0.13-29.46
			c0.19-5.18,4.1-8.41,9.01-8.65c9.56-0.45,11.33,8.21,10.98,15.95c0.3,10.02,0.6,20.05,0.91,30.21h63.57v-34.69
			c0-25.33-14.27-47.59-37.86-56.89c-25.66-10.12-51.9-9.9-77.47,0.1c-21.35,8.35-32.35,25.3-34.2,47.92
			c-1.6,19.51-1.15,39.07-0.09,58.61c0.32,5.82,1.82,11.41,4.65,16.58c7.09,17.59,22.31,30.04,37.42,40.64
			c10.84,7.63,21.3,15.81,32.23,23.3c6.3,4.32,11.69,9.06,14.07,16.54c-0.03,9.49,0.01,18.98-0.13,28.47
			c-0.03,2.66-0.54,5.31-1.56,7.84c-1.98,4.92-5.06,7.24-9.7,7.34c-10.11,0.38-12.64-11.1-12.32-19.13
			c-0.01-11.5,0-23.01-0.03-34.51c0-1.2,0.29-2.45-0.38-3.67h-62.86c0,11.77,0.05,23.27-0.02,34.77c-0.03,6.37,0.22,12.7,1.22,19.02
			c7.44,53.72,67.4,65.82,111.46,49.51c17.93-6.47,30.07-18.93,35.08-37.55C890.43,464.83,890.08,439.43,888.42,414.59z"/>
		<path class="st0" d="M661.83,271.32c-4.19,39.3-8.09,78.08-12.35,117.45c-0.41-1.19-0.69-1.98-0.97-2.78
			c-0.72-16.14-2.98-32.15-4.18-48.25c-3.12-35.04-5.36-70.3-9.37-105.19h-57.7c-5.48,51.16-10.96,102.27-15.99,153.47
			c-0.42,0.39,0.06,1.42-1.03,1.39c-4.96-51.57-8.81-103.23-13.73-154.8H486.2c0.43,16.12,2.95,32.07,4.2,48.15
			c2.71,27.41,5.18,54.83,8.24,82.2c0.53,15.31,2.85,30.77,4.26,46.11c4.02,39.2,7.39,78.36,11.45,117.59h76.18
			c5.38-44.19,9.68-88.5,14.93-132.7c0.19,0.01,0.39,0.03,0.58,0.05c5.24,44.2,10.67,88.52,15.78,132.68h76.31
			c2.59-24.41,3.99-48.59,6.68-72.92c0.95-2.33,0.64-4.82,0.87-7.23c6.32-71.33,13.91-142.52,20.22-213.93h-60
			C664.55,245.62,663.19,258.47,661.83,271.32z"/>
		<path class="st0" d="M286.84,167.69H223.6v154.58c-14.53-51.29-26.94-103.2-40.9-154.63h-62.04
			c0.32,104.5-0.33,254.36,0.35,358.98h60.8c0.09-26.52,0.62-129.7,0.56-154.23c0.19-0.02,0.38-0.03,0.57-0.05
			c11.94,45.02,26.03,109,37.32,154.27h66.97C286.78,407.04,287.87,287.05,286.84,167.69z"/>
		<path class="st0" d="M1979.17,243.93c-1.65-13.02-7-25.12-12.3-36.98c-0.58-0.83-1.17-1.65-1.75-2.48
			c-4.29-8.43-9.6-16.14-15.94-23.16c-4.92-6.44-10.61-12.12-16.99-17.11c-6.38-6.89-14.78-11.52-22.66-16.51
			c-3.2-2.84-7.43-3.94-10.82-6.48c-28.51-12.89-59.58-19.22-90.79-13.58c-18.99,3.22-37.73,9.41-53.85,20.11
			c-9.02,4.92-17.17,10.99-24.54,18.12c-0.24,0.04-0.48,0.07-0.72,0.09c-12.04,12.08-23.24,25.37-30.4,41.01
			c-1.77,3.82-3.54,7.64-5.31,11.47c-2.53,8.4-5.76,16.63-6.45,25.49c-3.15,14.44-2.5,29.41-1.45,44.04
			c1.89,23.57,8.83,46.88,21.3,67.06c16.39,26.09,41.58,45.22,70.36,55.86c1.18,0.93,1.13,1.83,0.31,3.1
			c-10.36,16.63-20.81,33.17-30.53,50.19c-3.55,5.77-7.09,11.54-10.64,17.31c-3.23,5.8-7.48,11-9.88,17.26
			c-1.4,0.58-1.73,1.99-2.42,3.1c-3.6,5.78-6.53,11.97-10.56,17.48c-1.55,2.63-3.1,5.26-4.73,8.03c45.41,0.5,90.87,0,136.3,0.23
			c2.22,0,3.45-0.78,4.59-2.6c4-6.36,8.16-12.63,12.26-18.92c9.61-16.5,19.95-32.62,30.68-48.42c9.27-15.95,19.87-31.05,29.3-46.89
			c7.85-11.53,15.05-23.46,22.33-35.35c4.09-5.85,7.95-11.87,11.48-18.08c5.27-7.18,10.28-14.49,13.21-23.01
			C1980.92,307.34,1984.12,273.08,1979.17,243.93z M1875.24,287.06l26.73,82.28l-69.99-50.85l-69.99,50.85l26.73-82.28l-69.99-50.85
			h86.52l26.73-82.28l26.73,82.28h86.52L1875.24,287.06z"/>
		<path class="st0" d="M474.11,404.5h-66.26c-0.65,19.79-0.36,39.61-0.62,59.42c-0.02,3.85-0.36,7.59-2.23,11.03
			c-4.13,8.33-17.66,8.31-20.93-0.7c-1.45-3.35-1.9-6.84-1.9-10.45c0.02-11.17-0.01-22.34-0.02-33.51
			c0.05-15.14,0.11-30.28,0.17-45.42c29.45-0.76,58.99-0.04,88.47-0.3c1.18-0.01,2.44,0.34,3.86-0.54c0.01-21.49-0.11-43,0.03-64.49
			c0.09-13.91-2.45-27.32-7.33-40.27c-8.7-23.06-23.31-40.61-47.39-48.52c-32.57-10.76-73.91-3.13-92.62,27.81
			c-8.77,13.72-13.57,28.93-14.71,45.02c-1.79,25.43-0.54,50.92-0.64,76.39c-0.01,18.1-0.01,36.21-0.01,54.32
			c-1.68,37.64,13.07,81.63,52.4,93.67c14.49,4.71,29.37,5.24,44.39,3.21c39.46-4.12,65.33-38.02,65.75-76.36
			c0.64-15.73,0.12-31.51,0.1-47.27C474.61,406.57,474.92,405.53,474.11,404.5z M382.31,330.98c-0.02-12.6,0-25.21,0.02-37.81
			c-0.06-6.71,2.32-15.09,10.36-14.69c4.73-0.03,7.68,2.07,9.29,6.64c0.71,2,1.12,4.08,1.13,6.22c-0.2,14.99,0.46,30.06-0.19,44.99
			H382.6C381.99,334.5,382.31,332.72,382.31,330.98z"/>
		<path class="st0" d="M1118.02,166.37c-7.17,75.09-14.32,149.95-21.47,224.83c-0.22-0.03-0.44-0.05-0.66-0.07
			c-5.03-74.95-10.06-149.91-15.09-224.83h-76.39c-7.02,75.07-14.02,150-21.03,224.93c-0.1,0-0.21,0.01-0.32,0.01
			c-5.94-74.75-10.07-149.94-15.41-224.94h-70.35c3.37,53.71,9.33,107.29,13.42,160.98c5.81,66.49,11.38,132.85,17.32,199.35h94.12
			c2.31-21.88,4.74-43.46,6.58-65.33c3.83-37.62,8.4-74.06,12.3-112.3c0.46,1.09,0.67,1.37,0.7,1.68c2.64,21.01,5.19,42.04,8.15,63
			c0.11,6.12,1.37,12.11,2.1,18.16c3.46,31.68,8.05,63.21,12.01,94.84h92.53c2.71-23.44,4.31-47.08,6.27-70.57
			c1.84-14.98,2.36-30.16,4.54-45.02c4.89-54.72,10.1-109.42,14.97-164.15c2.12-23.13,4.35-46.25,6.39-69.39
			c0.32-3.7,1.27-7.44,0.58-11.17H1118.02z"/>
		<path class="st0" d="M1536.55,421.72c-1.37-27.63-9.75-40.23-31.97-55.63c-0.13-0.92-0.99-1.14-1.57-1.59
			c-13.7-10.39-27.79-20.23-41.92-30.03c-9.09-6.32-15.12-14.24-13.73-26.37c0.76-6.61-0.14-13.4,0.31-20.06
			c0.4-5.94,4.13-9.09,9.56-9.15c5.45-0.05,9.03,3.08,10.03,8.79c0.7,3.99,0.44,8.02,0.58,12.04c0.29,8.45,0.54,16.9,0.8,25.29
			h63.57c0-6.16,0.01-12.07,0-17.98c-0.03-7.82,0.76-15.74-0.27-23.44c-3.05-22.88-14.67-40.39-36.19-49.42
			c-26.7-11.21-54.13-10.91-80.79,0.25c-19.85,8.31-30.13,24.58-32.19,45.78c-1.82,18.71-1.01,37.5-0.51,56.26
			c0.32,11.48,4.18,21.78,11.04,30.98c4.51,7.85,10.79,14.32,17.78,19.69c16.14,12.39,32.83,24.05,49.34,35.95
			c6.97,5.02,11.14,11.37,10.8,20.28c-0.28,7.26-0.31,14.52-0.45,21.78c-0.06,3.15-0.51,6.24-1.84,9.13
			c-3.23,8.53-15.41,8.8-19.24,0.54c-1.99-3.88-2.49-8.07-2.51-12.34c-0.02-11.84,0-23.68-0.03-35.53c-0.01-1.17,0.4-2.44-0.41-3.49
			H1384c0,13.08,0.05,25.92-0.02,38.76c-0.03,5.38,0.32,10.72,1.37,15.99c8.77,53.58,66.67,64.71,111.24,48.61
			c19.55-7.05,31.69-21.07,36.16-41.41C1537.37,464.4,1537.54,443.09,1536.55,421.72z"/>
		<path class="st0" d="M1642.05,479.52c-7.16-0.11-9.73-2.43-10.74-9.6c0.86-61.7-1.27-124.02,0.71-185.42h18.66v-45.68h-19.12
			v-46.44h-72.43v46.72h-13.77v45.5h14.24c-0.02,65.78,0.06,131.55,0.03,197.34c0,5.39,0.73,10.68,2.15,15.86
			c4.54,16.58,19.23,29.03,34.76,29.16c18.92,0,37.9,0.32,56.8-0.13v-47.31C1649.4,479.52,1645.72,479.57,1642.05,479.52z"/>
	</g>
	<line class="st1" x1="45.26" y1="43.1" x2="45.26" y2="642.62"/>
	<line class="st1" x1="24.7" y1="39.1" x2="2055.79" y2="39.1"/>
	<line class="st1" x1="2054.79" y1="663.05" x2="2054.79" y2="18.48"/>
	<line class="st1" x1="346.3" y1="642.62" x2="24.7" y2="642.62"/>
	<line class="st1" x1="2055.79" y1="642.54" x2="1758.42" y2="642.54"/>
	<g>
		<path class="st0" d="M370.89,673.96l10.39-14.35c7.62,7.97,17.01,11.97,28.18,12.01c4.89,0,8.68-0.97,11.36-2.92
			c2.68-1.95,4.03-4.31,4.03-7.08c0-3.03-1.46-5.31-4.38-6.85c-2.92-1.54-7.44-3.02-13.54-4.45c-3.03-0.69-5.21-1.2-6.53-1.53
			c-1.32-0.33-3.4-0.93-6.23-1.82c-2.84-0.89-4.99-1.73-6.46-2.53c-1.47-0.8-3.25-1.9-5.33-3.31c-2.08-1.41-3.63-2.91-4.64-4.51
			c-1.02-1.6-1.93-3.55-2.73-5.84c-0.8-2.29-1.2-4.83-1.2-7.6c0-7.62,3.06-13.97,9.19-19.06c6.13-5.09,14.28-7.63,24.45-7.63
			c14.11,0,25.65,4.11,34.61,12.34l-10.52,13.83c-7.01-6.49-15.48-9.74-25.39-9.74c-4.16,0-7.37,0.82-9.64,2.47
			c-2.27,1.65-3.41,3.84-3.41,6.59c0,2.75,1.37,4.77,4.12,6.07c2.75,1.3,7.26,2.69,13.54,4.16c2.73,0.61,4.9,1.12,6.53,1.53
			c1.62,0.41,3.76,1.06,6.4,1.95c2.64,0.89,4.76,1.75,6.36,2.6c1.6,0.84,3.4,1.98,5.39,3.41c1.99,1.43,3.55,2.93,4.68,4.51
			c1.13,1.58,2.06,3.53,2.79,5.84c0.74,2.32,1.1,4.84,1.1,7.57c0,8.53-3.03,15.41-9.09,20.65c-6.06,5.24-14.85,7.86-26.37,7.86
			C392.84,688.07,380.28,683.35,370.89,673.96z"/>
		<path class="st0" d="M476.35,686.49v-72.08h-25.98v-16.62h70.79v16.62h-25.85v72.08H476.35z"/>
		<path class="st0" d="M586.82,686.49l-5.58-15.33h-39.68l-5.58,15.33h-20.72l34.29-88.71h23.7l34.16,88.71H586.82z M561.36,614.15
			l-14.74,40.72h29.42L561.36,614.15z"/>
		<path class="st0" d="M665.72,686.49l-17.4-31.76h-13.83v31.76h-18.9v-88.71h41.5c9.13,0,16.39,2.66,21.76,7.99
			c5.37,5.33,8.05,12.19,8.05,20.59c0,7.27-1.88,13.17-5.65,17.7c-3.77,4.52-8.36,7.41-13.77,8.67l19.94,33.77H665.72z
			 M663.81,635.09c2.53-2.27,3.8-5.23,3.8-8.86s-1.27-6.58-3.8-8.83c-2.53-2.25-5.71-3.38-9.51-3.38h-19.81v24.48h19.81
			C658.1,638.5,661.27,637.36,663.81,635.09z"/>
		<path class="st0" d="M743.94,675.13c-8.72-8.66-13.09-19.63-13.09-32.93c0-13.29,4.36-24.27,13.09-32.93
			c8.72-8.66,19.77-12.99,33.15-12.99c13.46,0,24.57,4.31,33.31,12.92c8.74,8.62,13.12,19.61,13.12,32.99s-4.36,24.38-13.09,32.99
			c-8.72,8.62-19.84,12.92-33.35,12.92C763.72,688.12,752.67,683.79,743.94,675.13z M796.68,663.11c4.96-5.5,7.44-12.47,7.44-20.91
			s-2.48-15.4-7.44-20.88c-4.96-5.48-11.47-8.21-19.55-8.21c-8.07,0-14.57,2.74-19.48,8.21c-4.91,5.48-7.37,12.44-7.37,20.88
			s2.46,15.41,7.37,20.91c4.91,5.5,11.41,8.25,19.48,8.25C785.2,671.36,791.72,668.61,796.68,663.11z"/>
		<path class="st0" d="M836.78,686.49v-88.71h62.8v16.24h-43.9v19.29h42.93v16.24h-42.93v36.95H836.78z"/>
		<path class="st0" d="M1014.59,686.49L999,625.58l-15.46,60.92h-20.07l-25.39-88.71h21.17l15.52,64.1l16.88-64.1h14.81l16.75,64.1
			l15.39-64.1h21.3l-25.26,88.71H1014.59z"/>
		<path class="st0" d="M1068.81,686.49v-88.71h62.8v16.24h-43.9v19.29h42.93v16.24h-42.93v20.59h43.9v16.37H1068.81z"/>
		<path class="st0" d="M1140.18,673.96l10.39-14.35c7.62,7.97,17.02,11.97,28.19,12.01c4.89,0,8.68-0.97,11.36-2.92
			c2.68-1.95,4.03-4.31,4.03-7.08c0-3.03-1.46-5.31-4.38-6.85c-2.92-1.54-7.44-3.02-13.54-4.45c-3.03-0.69-5.21-1.2-6.53-1.53
			c-1.32-0.33-3.4-0.93-6.23-1.82c-2.84-0.89-4.99-1.73-6.46-2.53c-1.47-0.8-3.25-1.9-5.33-3.31c-2.08-1.41-3.63-2.91-4.64-4.51
			c-1.02-1.6-1.93-3.55-2.73-5.84c-0.8-2.29-1.2-4.83-1.2-7.6c0-7.62,3.06-13.97,9.19-19.06c6.13-5.09,14.28-7.63,24.45-7.63
			c14.11,0,25.65,4.11,34.61,12.34l-10.52,13.83c-7.01-6.49-15.48-9.74-25.39-9.74c-4.16,0-7.37,0.82-9.64,2.47
			c-2.27,1.65-3.41,3.84-3.41,6.59c0,2.75,1.37,4.77,4.12,6.07c2.75,1.3,7.26,2.69,13.54,4.16c2.73,0.61,4.9,1.12,6.53,1.53
			c1.62,0.41,3.75,1.06,6.4,1.95c2.64,0.89,4.76,1.75,6.36,2.6c1.6,0.84,3.4,1.98,5.39,3.41c1.99,1.43,3.55,2.93,4.68,4.51
			c1.12,1.58,2.06,3.53,2.79,5.84c0.74,2.32,1.1,4.84,1.1,7.57c0,8.53-3.03,15.41-9.09,20.65c-6.06,5.24-14.85,7.86-26.37,7.86
			C1162.13,688.07,1149.58,683.35,1140.18,673.96z"/>
		<path class="st0" d="M1245.65,686.49v-72.08h-25.98v-16.62h70.79v16.62h-25.85v72.08H1245.65z"/>
		<path class="st0" d="M1357.02,686.49v-72.08h-25.98v-16.62h70.79v16.62h-25.85v72.08H1357.02z"/>
		<path class="st0" d="M1413.85,686.49v-88.71h62.8v16.24h-43.9v19.29h42.93v16.24h-42.93v20.59h43.9v16.37H1413.85z"/>
		<path class="st0" d="M1549.18,686.49l-22.21-32.47l-22.34,32.47h-22.47l32.15-45.46l-30.13-43.25h22.47l20.33,30.33l20.07-30.33
			h22.73l-30.13,43.12l32.15,45.59H1549.18z"/>
		<path class="st0" d="M1642.31,686.49l-5.58-15.33h-39.68l-5.59,15.33h-20.72l34.29-88.71h23.7l34.16,88.71H1642.31z
			 M1616.85,614.15l-14.74,40.72h29.42L1616.85,614.15z"/>
		<path class="st0" d="M1664.07,673.96l10.39-14.35c7.62,7.97,17.02,11.97,28.19,12.01c4.89,0,8.68-0.97,11.36-2.92
			c2.68-1.95,4.03-4.31,4.03-7.08c0-3.03-1.46-5.31-4.38-6.85c-2.92-1.54-7.44-3.02-13.54-4.45c-3.03-0.69-5.21-1.2-6.53-1.53
			c-1.32-0.33-3.4-0.93-6.23-1.82c-2.84-0.89-4.99-1.73-6.46-2.53c-1.47-0.8-3.25-1.9-5.33-3.31c-2.08-1.41-3.63-2.91-4.64-4.51
			c-1.02-1.6-1.93-3.55-2.73-5.84c-0.8-2.29-1.2-4.83-1.2-7.6c0-7.62,3.06-13.97,9.19-19.06c6.13-5.09,14.28-7.63,24.45-7.63
			c14.11,0,25.65,4.11,34.61,12.34l-10.52,13.83c-7.01-6.49-15.48-9.74-25.39-9.74c-4.16,0-7.37,0.82-9.64,2.47
			c-2.27,1.65-3.41,3.84-3.41,6.59c0,2.75,1.37,4.77,4.12,6.07c2.75,1.3,7.26,2.69,13.54,4.16c2.73,0.61,4.9,1.12,6.53,1.53
			c1.62,0.41,3.75,1.06,6.4,1.95c2.64,0.89,4.76,1.75,6.36,2.6c1.6,0.84,3.4,1.98,5.39,3.41c1.99,1.43,3.55,2.93,4.68,4.51
			c1.12,1.58,2.06,3.53,2.79,5.84c0.74,2.32,1.1,4.84,1.1,7.57c0,8.53-3.03,15.41-9.09,20.65c-6.06,5.24-14.85,7.86-26.37,7.86
			C1686.02,688.07,1673.46,683.35,1664.07,673.96z"/>
	</g>
</g>
</svg>
